<?xml version="1.0" encoding="utf-8"?>
<!-- Generator: Adobe Illustrator 16.0.0, SVG Export Plug-In . SVG Version: 6.00 Build 0)  -->
<!DOCTYPE svg PUBLIC "-//W3C//DTD SVG 1.1//EN" "http://www.w3.org/Graphics/SVG/1.1/DTD/svg11.dtd">
<svg version="1.1" id="图层_1" xmlns="http://www.w3.org/2000/svg" xmlns:xlink="http://www.w3.org/1999/xlink" x="0px" y="0px"
	 width="40px" height="40px" viewBox="0 0 40 40" enable-background="new 0 0 40 40" xml:space="preserve">
<path fill="#929292" d="M19.994,7.098c8.318,0,16.01,4.706,19.835,12.081c0.243,0.465,0.212,0.965,0,1.377v0.041
	c-3.825,7.375-11.517,12.08-19.835,12.08c-8.302,0-16.024-4.705-19.817-12.121c-0.241-0.424-0.23-0.963,0-1.377
	C3.97,11.803,11.692,7.098,19.994,7.098L19.994,7.098z M19.994,10.829L19.994,10.829c4.984,0,9.054,4.08,9.054,9.078
	c0,4.97-4.069,9.029-9.054,9.029c-4.976,0-9.036-4.059-9.036-9.029C10.958,14.909,15.019,10.829,19.994,10.829L19.994,10.829z
	 M19.994,13.922L19.994,13.922c-3.28,0-5.972,2.68-5.972,5.984c0,3.253,2.666,5.986,5.972,5.986c3.295,0,5.98-2.732,5.98-5.986
	C25.975,16.602,23.289,13.922,19.994,13.922L19.994,13.922z M22.82,19.907L22.82,19.907c0-0.539,0.414-0.951,0.922-0.951
	c0.521,0,0.924,0.412,0.924,0.951c0,2.554-2.193,4.644-4.672,4.644c-0.499,0-0.913-0.426-0.913-0.914
	c0-0.498,0.414-0.912,0.913-0.912c1.297,0,2.468-0.889,2.775-2.244v-0.021C22.809,20.27,22.82,20.108,22.82,19.907L22.82,19.907z
	 M17.377,18.805L17.377,18.805c-0.181,0.426-0.729,0.648-1.183,0.438c-0.482-0.15-0.694-0.701-0.508-1.178
	c0.479-1.102,1.375-2.014,2.479-2.49c0.479-0.189,1.021,0.012,1.208,0.488c0.201,0.477,0,1.016-0.482,1.227
	C18.204,17.567,17.679,18.118,17.377,18.805L17.377,18.805z M19.994,10.192L19.994,10.192c-6.888,0-13.307,3.719-16.713,9.715
	c3.406,5.986,9.825,9.699,16.713,9.699c6.887,0,13.314-3.713,16.729-9.699C33.309,13.911,26.881,10.192,19.994,10.192L19.994,10.192
	z"/>
</svg>
